<?xml version="1.0"?>
<svg width="512" height="512" xmlns="http://www.w3.org/2000/svg" xmlns:svg="http://www.w3.org/2000/svg">
 <g class="layer">
  <title>Layer 1</title>
  <path clip-rule="evenodd" d="m342.2,-0.5c0.37,-0.53 1.1,-0.66 1.63,-0.29l36.36,25.46c0.53,0.37 0.66,1.1 0.29,1.63l-50.6,72.27c24.6,7.86 41.36,16.33 41.36,16.33s-40.97,70.47 -110.45,70.47s-118.85,-65.68 -118.85,-65.68s17.51,-11.17 43.46,-20.75l-55.5,-66.14c-0.42,-0.5 -0.35,-1.24 0.14,-1.66l34,-28.53c0.5,-0.41 1.24,-0.35 1.66,0.15l70.27,83.75c6.02,-0.68 12.15,-1.06 18.33,-1.06c8.89,0 17.77,0.67 26.44,1.82l61.46,-87.77zm13.74,189.2c18.54,-13.24 46.6,-47.8 46.6,-47.8s71.66,56.79 71.66,177.2c0,120.42 -123.89,192.89 -123.89,192.89s-59.2,-59.78 -73.73,-135.56c-14.53,-75.78 21.5,-159.93 21.5,-159.93s39.32,-13.56 57.86,-26.8zm-199.68,0c-18.54,-13.24 -46.6,-47.8 -46.6,-47.8s-71.66,56.79 -71.66,177.2c0,120.42 123.9,192.89 123.9,192.89s59.19,-59.78 73.72,-135.56c14.53,-75.78 -21.49,-159.93 -21.49,-159.93s-39.33,-13.56 -57.87,-26.8z" fill="#007f00" fill-rule="evenodd" id="svg_1"/>
 </g>
</svg>