<?xml version="1.0"?>
<svg width="512" height="512" xmlns="http://www.w3.org/2000/svg" xmlns:svg="http://www.w3.org/2000/svg">
 <g class="layer">
  <title>Layer 1</title>
  <path clip-rule="evenodd" d="m280.7,254.88c3.47,-2.12 6.42,-6.55 8.79,-11.48c31.25,12.77 53.2,42.95 53.2,78.14c0,46.75 -38.75,84.65 -86.55,84.65c-19.62,0 -37.72,-6.39 -52.23,-17.15c-4.77,-2.26 -8.68,-4.42 -11.89,-6.19c-4.97,-2.75 -8.23,-4.56 -10.28,-4.28c-5.96,0.83 -4.23,6.32 -2.66,11.31c1.07,3.39 2.07,6.55 0.53,7.85c-1.62,1.36 -6.85,-3.62 -12.95,-9.45c-8.32,-7.93 -18.27,-17.41 -22.96,-14.56c-3.71,2.25 -0.11,8.36 4.3,15.84l0.33,0.56c1.86,3.16 4.02,6.38 5.99,9.32c4,5.97 7.22,10.78 5.61,11.59c-1.95,0.99 -15.54,-8.18 -26.99,-20.91c-4.41,-4.92 -8.69,-10.24 -12.67,-15.19l0,0c-8.71,-10.84 -15.96,-19.86 -20.04,-18.79c-4.89,1.28 -1.19,11.39 4.26,21.11c2.54,4.55 5.54,9.18 8.13,13.19l0,0c4.03,6.23 7.1,10.96 5.99,11.54c-1.5,0.79 -14.68,-12.07 -23.64,-28.26c-5.31,-9.62 -9.78,-20.26 -13.39,-28.86c-3.92,-9.34 -6.84,-16.29 -8.77,-16.99c-6.68,-2.43 -6.68,11.19 -4,30.85c0.35,2.56 0.87,5.25 1.51,7.99c25.99,84.08 105.81,145.29 200.25,145.29c115.51,0 209.16,-91.59 209.16,-204.57c0,-107.53 -84.83,-195.68 -192.61,-203.94c0.14,-5.06 2.78,-15.11 2.78,-15.11c0,0 19.03,-46.03 20.03,-55.87c0.07,-0.65 0.15,-1.36 0.23,-2.12c1.19,-10.63 3.39,-30.39 -13.61,-30.39c-9.08,0 -13.3,6.75 -18.13,14.48l0,0c-1.85,2.97 -3.8,6.07 -6.14,9c-16.87,21.06 -45.23,47.37 -61.31,61.38c-34,29.62 -67.35,53.97 -86.8,68.17l0,0l0,0c-8.85,6.45 -14.82,10.81 -16.67,12.61c-13.93,13.58 -63.86,103.65 -63.86,103.65c0,0 -16.15,28.89 -10.41,34.75c5.74,5.86 19.58,4.52 19.58,4.52c0,0 185.94,-42.66 202.59,-46.02c4.48,-0.91 7.65,-1.43 10.08,-1.83c6.59,-1.09 7.78,-1.29 15.22,-5.83zm-131.46,-54.82c-9.99,9.49 -26.54,32.14 -26.54,32.14c0,0 30.77,1.89 47.71,-14.21c16.94,-16.11 13.06,-43.56 13.06,-43.56c0,0 -24.25,16.15 -34.23,25.63z" fill="#7f0000" fill-rule="evenodd" id="svg_1"/>
 </g>
</svg>