<?xml version="1.0"?>
<svg width="512" height="512" xmlns="http://www.w3.org/2000/svg" xmlns:svg="http://www.w3.org/2000/svg">
 <g class="layer">
  <title>Layer 1</title>
  <path clip-rule="evenodd" d="m352.26,395.39c6.32,-23.13 -5.95,-70.68 -5.95,-70.68c0,0 -8.91,38.74 -22.83,53.06c-11.87,12.21 -26.41,20.68 -47.27,22.91c17.05,-8.29 28.78,-25.56 28.78,-45.53c0,-28.02 -23.11,-50.74 -51.62,-50.74c-28.51,0 -51.62,22.72 -51.62,50.74c0,7.66 1.72,14.92 4.81,21.43c-17.84,-14.21 -20.64,-36.99 -20.64,-36.99c0,0 -19.91,82.67 34.96,121.56c54.86,38.89 162.34,5.46 162.34,5.46c0,0 -153.81,108.23 -267.78,-9.56c-98.18,-101.47 -25.63,-235.05 -25.63,-235.05c0,0 -3.13,12.4 -3.13,26.78c0,14.39 7.8,25.33 7.8,25.33c0,0 23.26,-49.04 41.37,-68.98c17.13,-18.88 38.62,-34.18 57.17,-47.41c14.28,-10.17 26.83,-19.12 34.32,-27.5c41.28,-46.15 15.97,-130.22 15.97,-130.22c0,0 46.53,41.02 59.52,94c4.95,20.19 1.77,43.17 -1.08,63.72c-4.62,33.35 -8.36,60.31 25.04,58.56c53.98,-2.83 7.08,-86.06 7.08,-86.06c0,0 122.45,64.36 113.3,176.92c-9.15,112.57 -133.85,138.16 -133.85,138.16c0,0 32.61,-26.78 38.94,-49.91z" fill="#ff7f00" fill-rule="evenodd" id="svg_1"/>
 </g>
</svg>