<?xml version="1.0"?>
<svg width="512" height="512" xmlns="http://www.w3.org/2000/svg" xmlns:svg="http://www.w3.org/2000/svg">
 <g class="layer">
  <title>Layer 1</title>
  <path clip-rule="evenodd" d="m368.95,510.23c-46.18,2.36 -99.05,2.36 -117.02,0c-140.16,-18.44 -251.93,-120.92 -251.93,-259.43c0,-138.51 114.61,-250.8 256,-250.8c141.38,0 256,112.29 256,250.8c0,64.42 -24.79,123.17 -65.54,167.59c-11.07,12.06 4.12,20.52 19.54,29.11c15.13,8.44 30.49,17 21.56,29.21c-9.83,13.46 -63.17,30.68 -118.61,33.52zm-148.95,-290.78c0,21.64 -17.91,39.19 -40,39.19c-22.09,0 -40,-17.55 -40,-39.19c0,-14.51 8.06,-27.19 20.02,-33.96c0.69,18.87 16.21,33.96 35.25,33.96l24.73,0c0,0 0,0 0,0zm123.98,-33.96c-0.69,18.87 -16.21,33.96 -35.25,33.96l-24.73,0c0,0 0,0 0,0c0,21.64 17.91,39.19 40,39.19c22.09,0 40,-17.55 40,-39.19c0,-14.51 -8.06,-27.19 -20.02,-33.96z" fill="#3f007f" fill-rule="evenodd" id="svg_1"/>
 </g>
</svg>