<?xml version="1.0"?>
<svg width="512" height="512" xmlns="http://www.w3.org/2000/svg" xmlns:svg="http://www.w3.org/2000/svg">
 <g class="layer">
  <title>Layer 1</title>
  <path clip-rule="evenodd" d="m97.41,440.65c-1.76,-1.65 -3.49,-3.34 -5.21,-5.06c-90.69,-90.68 -90.69,-237.71 0,-328.39c90.68,-90.69 379.64,-96.76 379.64,-96.76s39.44,334.47 -51.24,425.15c-80.54,80.54 -205.53,89.55 -296.01,27.03l72.91,-89.47l116.55,-25.16l-95.14,-9.51l60.46,-61.56l68.83,-15.08l-54.43,-16.12l54.43,-98.17l-77.41,86.82l-29.9,-42.18l10.53,69.65l-53.92,60.78l-24.99,-76.9l0,102.27l-75.1,92.66z" fill="#7fff00" fill-rule="evenodd" id="svg_1"/>
 </g>
</svg>